# xmcd
#
# Track frame offsets:
#	150
#	12651
#	32617
#	52648
#	77966
#	99877
#	124396
#	145130
#	165684
#	181785
#	197166
#	215571
#	238152
#	256425
#	277876
#	296966
#	304587
#	327133
#
# Disc length: 4643 seconds
#
# Revision: 0
# Processed by: cddbd v1.4PL0 Copyright (c) Steve Scherf et al.
# Submitted via: EasyCDDAExtractor 4.6.9.1
#
DISCID=02122112
DTITLE=Mary J. Blige - No More Drama
DYEAR=2002
DGENRE=R&B
TTITLE0=Love
TTITLE1=Family Affair
TTITLE2=Steal Away
TTITLE3=He Thinks I Don't Know
TTITLE4=PMS
TTITLE5=No More Drama
TTITLE6=Rainy Dayz
TTITLE7=Where I've Been
TTITLE8=Beautiful Day
TTITLE9=Dance for Me
TTITLE10=No More Drama (P. Diddy/Mario Winans Remix)
TTITLE11=Flying Away
TTITLE12=Never Been
TTITLE13=2 U
TTITLE14=In the Meantime
TTITLE15=Forever No More - Poem
TTITLE16=Testimony
TTITLE17=Girl from Yesterday
EXTD=
EXTT0=
EXTT1=
EXTT2=
EXTT3=
EXTT4=
EXTT5=
EXTT6=
EXTT7=
EXTT8=
EXTT9=
EXTT10=
EXTT11=
EXTT12=
EXTT13=
EXTT14=
EXTT15=
EXTT16=
EXTT17=
PLAYORDER=
